<?xml version="1.0" encoding="utf-8"?>
<!-- Generator: Adobe Illustrator 22.0.1, SVG Export Plug-In . SVG Version: 6.00 Build 0)  -->
<svg version="1.1" id="图层_1" xmlns="http://www.w3.org/2000/svg" xmlns:xlink="http://www.w3.org/1999/xlink" x="0px" y="0px"
	 viewBox="0 0 64 64" width="64px" height="88px;" style="enable-background:new 0 0 64 64;" xml:space="preserve">
<style type="text/css">
	.st0{fill-rule:evenodd;clip-rule:evenodd;fill:#f21259;}
	.st1{fill-rule:evenodd;clip-rule:evenodd;fill:#56AFEC;}
	.st2{fill:#F21259;}
	.st3{fill-rule:evenodd;clip-rule:evenodd;fill:#E6ECF0;}
	.st4{fill-rule:evenodd;clip-rule:evenodd;fill:#FFCC4C;}
	.st5{fill-rule:evenodd;clip-rule:evenodd;fill:#E000E0;}
</style>
<g>
	<g>
		<path class="st0" d="M28.9,41l7.3-8.1h-3.7l1.5-6.1l-6.6,8.1h3.7L28.9,41z M38,21.5H26c-1.4,0-3,1.7-3,3.2v19.2
			c0,1.4,1.2,2.6,2.6,2.6h12.9c1.4,0,2.6-1.2,2.6-2.6V24.7C41,23.2,39.4,21.5,38,21.5z M38,43.5H26v-19h12V43.5z M34.6,17.5h-5.1
			c-1.4,0-2.4,1.6-2.4,3h10C37,19.1,36,17.5,34.6,17.5z"/>
	</g>
</g>
</svg>
