<?xml version="1.0" encoding="utf-8"?>
<!-- Generator: Adobe Illustrator 22.0.1, SVG Export Plug-In . SVG Version: 6.00 Build 0)  -->
<svg version="1.1" id="图层_1" xmlns="http://www.w3.org/2000/svg" xmlns:xlink="http://www.w3.org/1999/xlink" x="0px" y="0px"
	 viewBox="0 0 64 64" width="64px" height="64px" style="enable-background:new 0 0 64 64;" xml:space="preserve">
<style type="text/css">
	.st0{fill-rule:evenodd;clip-rule:evenodd;fill:#333333;}
	.st1{fill-rule:evenodd;clip-rule:evenodd;fill:#56AFEC;}
	.st2{fill:#F21259;}
	.st3{fill-rule:evenodd;clip-rule:evenodd;fill:#E6ECF0;}
	.st4{fill-rule:evenodd;clip-rule:evenodd;fill:#FFCC4C;}
	.st5{fill-rule:evenodd;clip-rule:evenodd;fill:#E000E0;}
</style>
<path class="st0" d="M35.2,28.7c-0.3-0.4-0.6-0.8-0.9-1.2c-0.5-0.7-0.8-1.5-1.2-2.3c-0.1-0.3-0.2-0.5-0.3-0.8c-0.1-0.3-0.2-0.6-0.3-0.8
	c-0.1-0.2-0.1-0.4-0.4-0.5c-0.1,0-0.1,0-0.2,0c-0.1,0-0.2,0-0.3,0c-0.3,0.1-0.3,0.5-0.4,0.7c-0.1,0.4-0.2,0.7-0.4,1.1
	c-0.3,0.6-0.6,1.3-0.9,1.9c-0.4,0.7-0.8,1.3-1.3,1.9c-1.6,1.7-4.1,3.9-3.7,7.1c0.4,3.1,2.8,5.2,6.8,5.2c0,0,0.1,0,0.1,0
	c-0.1,0-0.1,0-0.2,0h0.3c-0.1,0-0.1,0-0.2,0c0,0,0.1,0,0.1,0c4.1,0,6.4-2.1,6.8-5.2C39.4,32.6,36.8,30.4,35.2,28.7z M37,35.5
	c-0.4,2.8-2.8,3.5-4.8,3.5v0h-0.3l0,0c-2,0-4.4-0.6-4.8-3.5c-0.2-1.9,1.3-3.5,2.6-4.9c0.2-0.2,0.4-0.4,0.6-0.6
	c0.6-0.6,1.1-1.4,1.6-2.3c0-0.1,0.1-0.2,0.1-0.3c0.2,0.4,0.4,0.8,0.6,1.1c0.4,0.6,0.7,1.1,1.1,1.5c0.2,0.2,0.4,0.4,0.6,0.6
	C35.7,32.1,37.2,33.7,37,35.5z"/>
</svg>
