<?xml version="1.0" encoding="utf-8"?>
<!-- Generator: Adobe Illustrator 22.0.1, SVG Export Plug-In . SVG Version: 6.00 Build 0)  -->
<svg version="1.1" id="图层_1" xmlns="http://www.w3.org/2000/svg" xmlns:xlink="http://www.w3.org/1999/xlink" x="0px" y="0px"
	 viewBox="0 0 64 64" style="enable-background:new 0 0 64 64;" xml:space="preserve">
<style type="text/css">
	.st0{fill-rule:evenodd;clip-rule:evenodd;fill:#666666;}
	.st1{fill-rule:evenodd;clip-rule:evenodd;fill:#56AFEC;}
	.st2{fill:#F21259;}
	.st3{fill-rule:evenodd;clip-rule:evenodd;fill:#E6ECF0;}
	.st4{fill-rule:evenodd;clip-rule:evenodd;fill:#FFCC4C;}
	.st5{fill-rule:evenodd;clip-rule:evenodd;fill:#E000E0;}
</style>
<path class="st0" d="M54,48.8c-0.4,3.1-2.4,5.2-5.9,5.2c0,0-0.1,0-0.1,0c0,0,0.1,0,0.1,0h-0.3c0,0,0.1,0,0.1,0c0,0-0.1,0-0.1,0
	c-3.5,0-5.5-2.1-5.9-5.2c-0.4-3.2,1.8-5.4,3.2-7.1c0.5-0.6,0.8-1.3,1.2-1.9c0.3-0.6,0.5-1.2,0.8-1.9c0.1-0.4,0.3-0.7,0.3-1.1
	c0-0.2,0.1-0.6,0.3-0.7c0.1,0,0.1,0,0.2,0c0.1,0,0.1,0,0.2,0c0.2,0.1,0.3,0.3,0.3,0.5c0.1,0.3,0.1,0.6,0.2,0.8
	c0.1,0.3,0.2,0.5,0.3,0.8c0.3,0.8,0.6,1.5,1,2.3c0.2,0.4,0.5,0.8,0.8,1.2C52.1,43.4,54.3,45.6,54,48.8z M46,21c0-3.9-3.1-7-7-7
	s-7,3.1-7,7v22c0,6.1-4.9,11-11,11s-11-4.9-11-11V10h4v33c0,3.9,3.1,7,7,7s7-3.1,7-7V21c0-6.1,4.9-11,11-11s11,4.9,11,11v13h-4V21z"
	/>
</svg>
