<?xml version="1.0" encoding="utf-8"?>
<!-- Generator: Adobe Illustrator 22.0.1, SVG Export Plug-In . SVG Version: 6.00 Build 0)  -->
<svg version="1.1" id="图层_1" xmlns="http://www.w3.org/2000/svg" xmlns:xlink="http://www.w3.org/1999/xlink" x="0px" y="0px"
	 viewBox="0 0 64 64" style="enable-background:new 0 0 64 64;" xml:space="preserve">
<style type="text/css">
	.st0{fill-rule:evenodd;clip-rule:evenodd;}
	.st1{fill-rule:evenodd;clip-rule:evenodd;fill:#56AFEC;}
	.st2{fill:#F21259;}
	.st3{fill-rule:evenodd;clip-rule:evenodd;fill:#E6ECF0;}
	.st4{fill-rule:evenodd;clip-rule:evenodd;fill:#FFCC4C;}
	.st5{fill-rule:evenodd;clip-rule:evenodd;fill:#E000E0;}
</style>
<g>
	<path class="st3" d="M41,16H23c-2.2,0-4,1.8-4,4v24c0,2.2,1.8,4,4,4h18c2.2,0,4-1.8,4-4V20C45,17.8,43.2,16,41,16z"/>
	<path class="st4" d="M19,31v13c0,2.2,1.8,4,4,4h18c2.2,0,4-1.8,4-4V31H19z"/>
	<g>
		<g>
			<path class="st2" d="M32,46C32,46,32,46,32,46C32,46,32,46,32,46C32,46,31.9,46,32,46L32,46C32.1,46,32,46,32,46L32,46z M32.1,46
				L32.1,46C32.1,46,32.1,46,32.1,46C32.1,46,32.1,46,32.1,46L32.1,46z M31.9,46L31.9,46C31.9,46,31.9,46,31.9,46
				C31.9,46,31.9,46,31.9,46L31.9,46z"/>
		</g>
		<g>
			<path class="st2" d="M32,37.9c0.1,0.1,0.2,0.2,0.2,0.4c0.1,0.1,0.2,0.3,0.3,0.4c0.8,1,1.5,2,1.4,3.3c-0.2,1.9-1.4,2-1.9,2
				c0,0,0,0,0,0L32,44l0,0c-0.5,0-1.7,0-1.9-2c-0.1-1.3,0.7-2.3,1.4-3.3c0.1-0.2,0.2-0.3,0.3-0.4C31.8,38.2,31.9,38.1,32,37.9
				 M32,33c0,0-0.1,0-0.1,0c-0.2,0.1-0.2,0.4-0.2,0.5c0,0.3-0.1,0.5-0.2,0.8c-0.1,0.5-0.3,0.9-0.5,1.4c-0.2,0.5-0.5,1-0.8,1.4
				c-0.9,1.2-2.4,2.8-2.1,5.1c0.2,2.2,1.6,3.8,3.9,3.8c0,0,0,0,0.1,0c0,0,0,0,0.1,0c2.3,0,3.7-1.5,3.9-3.8c0.2-2.3-1.2-3.9-2.1-5.1
				c-0.2-0.3-0.4-0.6-0.5-0.9c-0.3-0.5-0.5-1.1-0.7-1.6c-0.1-0.2-0.1-0.4-0.2-0.6c-0.1-0.2-0.1-0.4-0.1-0.6c0-0.1-0.1-0.3-0.2-0.4
				C32.1,33,32,33,32,33L32,33z"/>
		</g>
	</g>
</g>
</svg>
