<?xml version="1.0" encoding="utf-8"?>
<!-- Generator: Adobe Illustrator 22.0.1, SVG Export Plug-In . SVG Version: 6.00 Build 0)  -->
<svg version="1.1" id="图层_1" xmlns="http://www.w3.org/2000/svg" xmlns:xlink="http://www.w3.org/1999/xlink" x="0px" y="0px"
	 viewBox="0 0 64 64" style="enable-background:new 0 0 64 64;" xml:space="preserve">
<style type="text/css">
	.st0{fill-rule:evenodd;clip-rule:evenodd;fill:#666666;}
	.st1{fill-rule:evenodd;clip-rule:evenodd;fill:#56AFEC;}
	.st2{fill:#F21259;}
	.st3{fill-rule:evenodd;clip-rule:evenodd;fill:#E6ECF0;}
	.st4{fill-rule:evenodd;clip-rule:evenodd;fill:#FFCC4C;}
	.st5{fill-rule:evenodd;clip-rule:evenodd;fill:#E000E0;}
</style>
<g>
	<path class="st0" d="M55.4,52.6l-8.5-8.5C50.1,40.2,52,35.3,52,30c0-12.1-9.8-22-22-22C17.8,8,8,17.9,8,30c0,12.1,9.9,22,22,22
		c5.3,0,10.3-1.9,14.1-5.1l8.5,8.5c0.8,0.8,2.1,0.8,2.9,0C56.2,54.6,56.2,53.3,55.4,52.6z M30,48c-9.9,0-18-8.1-18-18
		c0-9.9,8.1-18,18-18c9.9,0,18,8.1,18,18C48,39.9,39.9,48,30,48z"/>
	<rect class="st0" x="28" y="40" width="4" height="4"/>
	<path class="st0" d="M35.8,20c-1.5-1.3-3.3-1.9-5.5-1.9c-1.1,0-2.1,0.2-3.1,0.5c-1,0.3-1.9,0.9-2.7,1.6c-0.8,0.7-1.4,1.5-1.8,2.4
		c-0.4,0.9-0.6,2.2-0.6,3.9l0,0.2h3.6v-0.2c0-3.6,1.5-5.3,4.5-5.3c1.3,0,2.3,0.4,3,1.1c0.7,0.7,1,1.6,1,2.5c0,1-0.1,1.7-0.4,2.2
		c-0.3,0.5-1,1.3-2.1,2.4c-1.1,1.1-1.9,2-2.3,2.6c-0.4,0.6-0.8,1.3-1,2.1c-0.2,0.8-0.3,1.9-0.3,3.2v0.2h3.6l0-0.2
		c0-1.1,0.1-2,0.3-2.6c0.2-0.6,0.5-1.2,0.8-1.6c0.4-0.5,1.2-1.3,2.4-2.4c1.2-1.2,2-2.1,2.4-2.9c0.4-0.8,0.6-1.7,0.6-2.6
		C38,23,37.2,21.3,35.8,20z"/>
</g>
</svg>
