<?xml version="1.0" encoding="utf-8"?>
<!-- Generator: Adobe Illustrator 22.0.1, SVG Export Plug-In . SVG Version: 6.00 Build 0)  -->
<svg version="1.1" id="图层_1" xmlns="http://www.w3.org/2000/svg" xmlns:xlink="http://www.w3.org/1999/xlink" x="0px" y="0px"
	 viewBox="0 0 64 64" style="enable-background:new 0 0 64 64;" xml:space="preserve">
<style type="text/css">
	.st0{fill-rule:evenodd;clip-rule:evenodd;fill:#666666;}
	.st1{fill-rule:evenodd;clip-rule:evenodd;fill:#56AFEC;}
	.st2{fill:#F21259;}
	.st3{fill-rule:evenodd;clip-rule:evenodd;fill:#E6ECF0;}
	.st4{fill-rule:evenodd;clip-rule:evenodd;fill:#FFCC4C;}
	.st5{fill-rule:evenodd;clip-rule:evenodd;fill:#E000E0;}
</style>
<g>
	<g>
		<path class="st0" d="M32,42c5.5,0,10-4.5,10-10c0-4.8-3.4-8.9-8-9.8V10c0-1.1-0.9-2-2-2c-1.1,0-2,0.9-2,2v12.2c-4.6,0.9-8,5-8,9.8
			C22,37.5,26.5,42,32,42z M32,26c3.3,0,6,2.7,6,6c0,3.3-2.7,6-6,6c-3.3,0-6-2.7-6-6C26,28.7,28.7,26,32,26z M42.9,10.5
			c-1-0.5-2.2-0.1-2.7,0.9c-0.5,1-0.1,2.2,0.9,2.7C47.8,17.5,52,24.4,52,31.9C52,43,43,52,32,52c-11,0-20-9-20-20.1
			c0-7.6,4.2-14.4,10.9-17.9c1-0.5,1.4-1.7,0.9-2.7c-0.5-1-1.7-1.4-2.7-0.9C13,14.6,8,22.9,8,31.9C8,45.2,18.8,56,32,56
			c13.2,0,24-10.8,24-24.1C56,22.9,51,14.6,42.9,10.5z"/>
	</g>
</g>
</svg>
