<?xml version="1.0" encoding="utf-8"?>
<!-- Generator: Adobe Illustrator 22.0.1, SVG Export Plug-In . SVG Version: 6.00 Build 0)  -->
<svg version="1.1" id="图层_1" xmlns="http://www.w3.org/2000/svg" xmlns:xlink="http://www.w3.org/1999/xlink" x="0px" y="0px"
	 viewBox="0 0 64 64" style="enable-background:new 0 0 64 64;" xml:space="preserve">
<style type="text/css">
	.st0{fill-rule:evenodd;clip-rule:evenodd;}
	.st1{fill-rule:evenodd;clip-rule:evenodd;fill:#56AFEC;}
	.st2{fill:#F21259;}
	.st3{fill-rule:evenodd;clip-rule:evenodd;fill:#E6ECF0;}
	.st4{fill-rule:evenodd;clip-rule:evenodd;fill:#FFCC4C;}
	.st5{fill-rule:evenodd;clip-rule:evenodd;fill:#E000E0;}
</style>
<g>
	<path class="st1" d="M38,8H26c-6.6,0-12,5.4-12,12v14c0,6.1,4.5,11,10.3,11.8C24.1,46.5,24,47.3,24,48c0,4.4,3.6,8,8,8
		c1.5,0,2.9-0.4,4.2-1.2c0.9-0.6,1.2-1.8,0.7-2.8c-0.6-0.9-1.8-1.2-2.8-0.7C33.5,51.8,32.7,52,32,52c-2.2,0-4-1.8-4-4
		c0-2.2,1.8-4,4-4c2.2,0,4,1.8,4,4c0,1.1,0.9,2,2,2c1.1,0,2-0.9,2-2c0-0.8-0.1-1.5-0.3-2.2C45.5,45,50,40.1,50,34V20
		C50,13.4,44.6,8,38,8z M46,34c0,4.4-3.6,8-8,8h-0.8c-1.4-1.2-3.2-2-5.2-2c-2,0-3.8,0.8-5.2,2H26c-4.4,0-8-3.6-8-8V20
		c0-4.4,3.6-8,8-8h12c4.4,0,8,3.6,8,8V34z"/>
	<g>
		<path class="st2" d="M27.1,20c-1.1,0-2,0.9-2,2v10c0,1.1,0.9,2,2,2s2-0.9,2-2V22C29,20.9,28.2,20,27.1,20z"/>
		<path class="st2" d="M36.9,20c-1.1,0-2,0.9-2,2v10c0,1.1,0.9,2,2,2s2-0.9,2-2V22C38.9,20.9,38,20,36.9,20z"/>
	</g>
</g>
</svg>
