<?xml version="1.0" encoding="utf-8"?>
<!-- Generator: Adobe Illustrator 22.0.1, SVG Export Plug-In . SVG Version: 6.00 Build 0)  -->
<svg version="1.1" id="图层_1" xmlns="http://www.w3.org/2000/svg" xmlns:xlink="http://www.w3.org/1999/xlink" x="0px" y="0px"
	 viewBox="0 0 64 64" width="64px" height="64px"  style="enable-background:new 0 0 64 64;" xml:space="preserve">
<style type="text/css">
	.st0{fill-rule:evenodd;clip-rule:evenodd;fill:#333333;}
	.st1{fill-rule:evenodd;clip-rule:evenodd;fill:#56AFEC;}
	.st2{fill:#F21259;}
	.st3{fill-rule:evenodd;clip-rule:evenodd;fill:#E6ECF0;}
	.st4{fill-rule:evenodd;clip-rule:evenodd;fill:#FFCC4C;}
	.st5{fill-rule:evenodd;clip-rule:evenodd;fill:#E000E0;}
</style>
<path class="st0" d="M32.1,23c-5,0-9,4-9,9c0,5,4,9,9,9s9-4,9-9C41.1,27,37.1,23,32.1,23z M32.1,39c-3.9,0-7-3.1-7-7
	c0-3.9,3.1-7,7-7c3.9,0,7,3.1,7,7C39.1,35.9,36,39,32.1,39z M36.1,31h-3v-3c0-0.6-0.4-1-1-1c-0.6,0-1,0.4-1,1v4c0,0.6,0.4,1,1,1h4
	c0.6,0,1-0.4,1-1S36.6,31,36.1,31z"/>
</svg>
