<?xml version="1.0" encoding="utf-8"?>
<!-- Generator: Adobe Illustrator 22.1.0, SVG Export Plug-In . SVG Version: 6.00 Build 0)  -->
<svg version="1.1" id="图层_1" xmlns="http://www.w3.org/2000/svg" xmlns:xlink="http://www.w3.org/1999/xlink" x="0px" y="0px"
	 viewBox="0 0 64 64" style="enable-background:new 0 0 64 64;" xml:space="preserve">
<style type="text/css">
	.st0{fill:#90B5F2;}
	.st1{fill:#B2CEFF;}
</style>
<path id="XMLID_38_" class="st0" d="M63.7,38.3c-1.3-15.1-13.4-25-17.2-27.1C42.7,9.1,36.1,7.6,34.4,9c-1.5,1.3-1.1,5.7,2.3,9
	c3.8,3.8-6.5,23-2.3,31.5c4.3,8.5,25.5,6.1,27,4.5S64.7,49.8,63.7,38.3z"/>
<path class="st1" d="M27.3,17.9c3.3-3.3,3.8-7.7,2.3-9c-1.7-1.4-8.3,0.1-12.1,2.2S1.6,23,0.3,38.2c-1,11.5,0.8,14.2,2.3,15.7
	c1.5,1.6,22.7,4,27-4.5C33.8,40.9,23.5,21.7,27.3,17.9z"/>
</svg>
