<?xml version="1.0" encoding="utf-8"?>
<!-- Generator: Adobe Illustrator 22.1.0, SVG Export Plug-In . SVG Version: 6.00 Build 0)  -->
<svg version="1.1" id="图层_1" xmlns="http://www.w3.org/2000/svg" xmlns:xlink="http://www.w3.org/1999/xlink" x="0px" y="0px"
	 viewBox="0 0 64 64" style="enable-background:new 0 0 64 64;" xml:space="preserve">
<style type="text/css">
	.st0{fill:#90B5F2;}
	.st1{fill:#B2CEFF;}
</style>
<path id="XMLID_38_" class="st0" d="M38,35.2l-7.9,15.5L24.9,30l-7.8,11.7l-3.9-6.5L5,39.5c9.1,14.6,27.8,22.8,27.8,22.8
	s26.5-12.1,30.7-33.1l-13.2,8.3L38,35.2z"/>
<path class="st1" d="M45.8,1.7c-5.5,0-10.3,2.3-13.7,6.1C28.7,4,23.9,1.7,18.4,1.7c-10.1,0-18.3,8.1-18.3,18c0,6,1.9,11.3,4.8,16
	l8.2-4.3l3.9,3.9l9.1-12.9l5.2,18.1l6.5-9L49.3,34l14-8.6c0.4-1.8,0.6-3.6,0.6-5.5C64.1,9.8,55.9,1.7,45.8,1.7z"/>
</svg>
