<?xml version="1.0" encoding="utf-8"?>
<!-- Generator: Adobe Illustrator 15.0.0, SVG Export Plug-In . SVG Version: 6.00 Build 0)  -->
<!DOCTYPE svg PUBLIC "-//W3C//DTD SVG 1.1//EN" "http://www.w3.org/Graphics/SVG/1.1/DTD/svg11.dtd">
<svg version="1.1" id="图层_1" xmlns="http://www.w3.org/2000/svg" xmlns:xlink="http://www.w3.org/1999/xlink" x="0px" y="0px"
	 width="612px" height="792px" viewBox="0 0 612 792" enable-background="new 0 0 612 792" xml:space="preserve">
<g id="XMLID_123_">
	<circle id="XMLID_103_" opacity="0.6" fill="#727272" enable-background="new    " cx="306.956" cy="368.269" r="130.05"/>
	<path id="XMLID_102_" opacity="0.6" fill="#727272" enable-background="new    " d="M546.975,687.656H66.938
		c-6.694,0-11.475-4.781-11.475-11.475v-16.257c0-83.193,66.938-150.131,150.131-150.131h202.725
		c83.194,0,150.132,66.938,150.132,150.131v16.257C558.45,682.875,552.713,687.656,546.975,687.656z"/>
	<path id="XMLID_99_" fill="#727272" d="M306.956,98.606c-77.456,0-147.263,34.425-195.075,87.975
		c-3.824,3.825-2.868,9.563,0.957,12.432l74.587,66.938c3.825,2.868,8.606,1.912,11.476-0.956
		c27.73-27.731,65.98-44.944,108.056-44.944s80.325,17.213,108.057,44.944c2.868,2.868,7.649,3.824,11.475,0.956l74.588-66.938
		c3.825-2.869,4.781-9.563,0.956-12.432C453.263,132.075,384.412,98.606,306.956,98.606z M342.338,161.719
		c0,1.912-1.913,3.825-3.825,3.825h-23.906v23.906c0,1.912-1.913,3.825-3.825,3.825h-5.737c-1.913,0-3.825-1.913-3.825-3.825V166.5
		h-23.906c-1.912,0-3.825-1.912-3.825-3.825v-6.693c0-1.913,1.913-3.825,3.825-3.825h23.906V128.25c0-1.912,1.912-3.825,3.825-3.825
		h5.737c1.912,0,3.825,1.913,3.825,3.825v23.906h23.906c1.912,0,3.825,1.912,3.825,3.825V161.719z"/>
</g>
</svg>
