<?xml version="1.0" encoding="utf-8"?>
<!-- Generator: Adobe Illustrator 15.0.0, SVG Export Plug-In . SVG Version: 6.00 Build 0)  -->
<!DOCTYPE svg PUBLIC "-//W3C//DTD SVG 1.1//EN" "http://www.w3.org/Graphics/SVG/1.1/DTD/svg11.dtd">
<svg version="1.1" id="图层_1" xmlns="http://www.w3.org/2000/svg" xmlns:xlink="http://www.w3.org/1999/xlink" x="0px" y="0px"
	 width="612px" height="792px" viewBox="0 0 612 792" enable-background="new 0 0 612 792" xml:space="preserve">
<g id="XMLID_121_">
	<path id="XMLID_92_" opacity="0.6" fill="#727272" enable-background="new    " d="M556.537,98.606H53.55
		c-22.95,0-41.119,18.169-41.119,41.118V571.95c0,22.95,18.169,41.118,41.119,41.118h502.987c22.95,0,41.119-18.168,41.119-41.118
		V139.725C597.656,116.775,579.487,98.606,556.537,98.606z M504.9,201.881L366.244,554.737
		c-5.738,13.388-23.906,14.344-30.601,1.913L281.138,449.55c-1.913-4.781-1.913-9.563,0.956-13.388l109.969-143.438
		c1.912-2.868-0.956-6.693-4.781-4.781l-153.956,95.625c-3.825,2.869-9.563,2.869-13.388,0l-105.188-65.98
		c-12.431-7.65-9.563-26.775,3.825-30.601l365.287-108.056C497.25,175.106,509.682,188.494,504.9,201.881z"/>
	<path id="XMLID_91_" fill="#727272" d="M574.706,694.35H35.381c-12.431,0-22.95-10.519-22.95-22.949l0,0
		c0-12.432,10.519-22.95,22.95-22.95H573.75c12.432,0,22.95,10.519,22.95,22.95l0,0C597.656,683.831,587.138,694.35,574.706,694.35z
		"/>
</g>
</svg>
