<?xml version="1.0" encoding="utf-8"?>
<!-- Generator: Adobe Illustrator 15.0.0, SVG Export Plug-In . SVG Version: 6.00 Build 0)  -->
<!DOCTYPE svg PUBLIC "-//W3C//DTD SVG 1.1//EN" "http://www.w3.org/Graphics/SVG/1.1/DTD/svg11.dtd">
<svg version="1.1" id="图层_1" xmlns="http://www.w3.org/2000/svg" xmlns:xlink="http://www.w3.org/1999/xlink" x="0px" y="0px"
	 width="612px" height="792px" viewBox="0 0 612 792" enable-background="new 0 0 612 792" xml:space="preserve">
<g id="XMLID_124_">
	<path id="XMLID_107_" fill="#727272" d="M569.925,659.925l-40.162-40.162c-0.956-0.956-1.913-3.825-0.956-4.781
		c16.256-25.819,22.949-58.331,15.3-92.757c-10.519-43.987-45.9-79.368-89.888-88.931c-87.975-19.125-164.475,57.375-145.35,145.35
		c9.563,43.987,44.943,79.369,87.975,89.888c33.469,8.606,65.981,1.912,91.8-13.388c1.913-0.956,3.825-0.956,4.781,0.956
		l40.163,40.163c1.912,1.912,4.781,1.912,6.693,0l28.688-28.688C571.838,664.706,571.838,661.838,569.925,659.925z M343.294,550.912
		c0-45.899,37.294-83.193,83.193-83.193c45.9,0,83.194,37.294,83.194,83.193c0,45.9-37.294,83.194-83.194,83.194
		C380.588,634.106,343.294,596.813,343.294,550.912z"/>
	<path id="XMLID_104_" opacity="0.6" fill="#727272" enable-background="new    " d="M280.182,520.313
		c11.475-58.331,58.331-105.188,116.662-116.662c34.425-6.694,67.894-1.913,96.581,12.431c8.606,4.781,19.125-1.912,19.125-11.475
		V130.162c0-18.168-15.3-33.469-33.469-33.469H72.675c-18.168,0-33.469,15.301-33.469,33.469v473.344
		c0,18.169,15.3,33.469,33.469,33.469h208.463c9.563,0,16.256-10.519,11.475-19.125
		C279.225,589.162,273.487,555.693,280.182,520.313z M282.094,176.063l26.775,54.506c0.956,1.913,2.868,3.825,4.781,3.825
		L373.894,243c5.737,0.956,7.65,7.65,3.825,11.475l-43.031,43.031c-1.912,1.913-1.912,3.825-1.912,5.738l10.519,60.243
		c0.956,5.737-4.781,9.563-9.563,6.694l-54.507-28.688c-1.912-0.957-4.781-0.957-6.693,0l-54.506,28.688
		c-4.781,2.868-10.52-1.913-9.563-6.694l10.519-60.243c0-1.913,0-4.781-1.913-5.738l-43.987-43.031
		c-3.825-3.824-1.912-10.519,3.825-11.475l60.244-8.606c1.912,0,3.824-1.912,4.781-3.825l27.73-54.506
		C272.531,170.325,279.225,170.325,282.094,176.063z"/>
</g>
</svg>
