<?xml version="1.0" encoding="utf-8"?>
<!-- Generator: Adobe Illustrator 15.0.0, SVG Export Plug-In . SVG Version: 6.00 Build 0)  -->
<!DOCTYPE svg PUBLIC "-//W3C//DTD SVG 1.1//EN" "http://www.w3.org/Graphics/SVG/1.1/DTD/svg11.dtd">
<svg version="1.1" id="图层_1" xmlns="http://www.w3.org/2000/svg" xmlns:xlink="http://www.w3.org/1999/xlink" x="0px" y="0px"
	 width="612px" height="792px" viewBox="0 0 612 792" enable-background="new 0 0 612 792" xml:space="preserve">
<g>
	<g>
		<path fill="#666666" d="M365.287,301.331c-13.387,0-23.906,10.519-23.906,23.906v141.525c0,13.388,10.52,23.906,23.906,23.906
			c13.388,0,23.906-10.519,23.906-23.906V325.237C388.237,311.85,377.719,301.331,365.287,301.331z M246.713,301.331
			c-13.388,0-23.906,10.519-23.906,23.906v141.525c0,13.388,10.519,23.906,23.906,23.906c13.387,0,23.906-10.519,23.906-23.906
			V325.237C270.619,311.85,260.1,301.331,246.713,301.331z"/>
	</g>
</g>
<g>
	<path fill="#666666" d="M459,679.05H153c-65.025,0-117.619-53.55-117.619-118.575V231.525C35.381,166.5,87.975,112.95,153,112.95
		h306c65.025,0,117.619,52.594,117.619,117.618v329.906C576.619,625.5,524.025,679.05,459,679.05z M153,160.763
		c-39.206,0-70.763,31.556-70.763,70.763v329.906c0,39.206,31.557,70.762,70.763,70.762h306c39.206,0,70.763-31.556,70.763-70.762
		V231.525c0-39.207-31.557-70.763-70.763-70.763H153z"/>
</g>
</svg>
