<?xml version="1.0" encoding="utf-8"?>
<!-- Generator: Adobe Illustrator 15.0.0, SVG Export Plug-In . SVG Version: 6.00 Build 0)  -->
<!DOCTYPE svg PUBLIC "-//W3C//DTD SVG 1.1//EN" "http://www.w3.org/Graphics/SVG/1.1/DTD/svg11.dtd">
<svg version="1.1" id="图层_1" xmlns="http://www.w3.org/2000/svg" xmlns:xlink="http://www.w3.org/1999/xlink" x="0px" y="0px"
	 width="612px" height="792px" viewBox="0 0 612 792" enable-background="new 0 0 612 792" xml:space="preserve">
<g id="XMLID_2_">
	<path id="XMLID_11_" fill="#666666" d="M420.75,285.075c-13.388-12.432-23.906-25.819-34.425-40.163
		c-17.213-23.906-31.557-49.725-43.987-75.543c-4.781-8.606-8.606-18.169-12.432-26.775c-3.825-9.563-6.693-18.169-9.563-27.731
		c-1.912-6.693-3.825-14.344-13.388-17.212c-1.912-0.957-4.781-0.957-7.649-0.957c-2.869,0-6.694,0.957-9.563,1.913
		c-10.52,3.825-12.432,16.256-14.344,23.906c-1.913,12.431-8.606,23.906-13.388,36.337c-9.563,21.038-21.038,42.075-33.469,62.156
		C215.156,243,198.9,265.95,178.818,285.075C122.4,341.494,54.506,415.125,69.806,520.313
		c15.3,102.318,74.587,172.125,225.675,172.125c1.912,0,2.868,0,4.781,0c-1.913,0-3.825,0-5.737,0h12.431c-1.912,0-3.825,0-5.737,0
		c1.912,0,2.869,0,4.781,0c151.088,0,210.375-69.807,225.675-172.125C546.975,415.125,478.125,341.494,420.75,285.075z
		 M491.513,514.575c-13.388,87.975-62.156,138.656-181.688,140.568c-0.956,0-1.913,0-2.869,0h-12.431c-0.957,0-1.913,0-2.869,0
		C171.169,654.188,122.4,602.55,109.969,514.575c-11.475-74.588,23.906-132.919,78.412-184.557
		c7.65-6.693,14.344-13.388,21.038-19.125c20.081-19.125,38.25-42.075,55.462-71.719c14.344-23.906,25.819-44.943,35.382-65.981
		v-0.956c0.956,2.869,2.868,5.737,3.825,8.606l1.912,4.781c15.3,31.557,30.6,57.375,46.856,80.325
		c12.431,18.169,24.862,32.513,38.25,45.899c6.693,6.694,13.388,12.432,21.037,20.082
		C467.606,381.656,502.987,439.987,491.513,514.575z"/>
</g>
<g id="XMLID_8_">
	<path id="XMLID_4_" fill="#666666" d="M205.594,525.094c-87.019,0-131.006-65.025-132.919-67.894l39.206-25.819
		c0.957,1.913,32.513,46.856,93.713,46.856c32.513,0,59.287-16.256,87.019-33.469c30.601-18.169,62.156-38.25,101.362-38.25
		c76.5,0,130.051,48.769,132.919,50.682l-31.556,34.425c0,0-43.031-38.25-101.363-38.25c-26.774,0-50.681,14.344-77.456,30.6
		C286.875,504.057,251.494,525.094,205.594,525.094z"/>
</g>
</svg>
