<?xml version="1.0" encoding="utf-8"?>
<!-- Generator: Adobe Illustrator 15.0.0, SVG Export Plug-In . SVG Version: 6.00 Build 0)  -->
<!DOCTYPE svg PUBLIC "-//W3C//DTD SVG 1.1//EN" "http://www.w3.org/Graphics/SVG/1.1/DTD/svg11.dtd">
<svg version="1.1" id="图层_1" xmlns="http://www.w3.org/2000/svg" xmlns:xlink="http://www.w3.org/1999/xlink" x="0px" y="0px"
	 width="612px" height="792px" viewBox="0 0 612 792" enable-background="new 0 0 612 792" xml:space="preserve">
<g id="XMLID_19_">
	<rect id="XMLID_18_" x="45.9" y="495.45" fill="#666666" width="517.332" height="49.725"/>
</g>
<g id="XMLID_17_">
	<path id="XMLID_16_" fill="#666666" d="M305.044,464.85c-61.2,0-110.925-49.725-110.925-110.925
		c0-54.506,77.456-136.743,93.712-153l17.213-18.169l17.212,18.169c15.301,16.257,93.713,97.538,93.713,153
		C415.969,415.125,366.244,464.85,305.044,464.85z M305.044,254.475c-29.644,33.469-61.2,78.413-61.2,99.45
		c0,34.425,27.731,61.2,61.2,61.2s61.2-27.731,61.2-61.2C367.2,332.888,334.688,287.943,305.044,254.475z"/>
</g>
<g id="XMLID_14_">
	<path id="XMLID_24_" fill="#666666" d="M465.693,691.481H145.35c-68.85,0-123.356-54.507-123.356-123.356v-344.25
		c0-68.85,54.506-123.356,123.356-123.356h320.344c67.895,0,123.356,55.463,123.356,123.356v344.25
		C589.05,636.975,533.588,691.481,465.693,691.481z M145.35,149.287c-41.118,0-73.631,33.469-73.631,73.632v345.206
		c0,41.119,33.469,73.631,73.631,73.631h320.344c41.119,0,73.632-33.469,73.632-73.631v-344.25
		c0-41.119-33.469-73.631-73.632-73.631H145.35V149.287z"/>
</g>
</svg>
