<?xml version="1.0" encoding="utf-8"?>
<!-- Generator: Adobe Illustrator 15.0.0, SVG Export Plug-In . SVG Version: 6.00 Build 0)  -->
<!DOCTYPE svg PUBLIC "-//W3C//DTD SVG 1.1//EN" "http://www.w3.org/Graphics/SVG/1.1/DTD/svg11.dtd">
<svg version="1.1" id="图层_1" xmlns="http://www.w3.org/2000/svg" xmlns:xlink="http://www.w3.org/1999/xlink" x="0px" y="0px"
	 width="612px" height="792px" viewBox="0 0 612 792" enable-background="new 0 0 612 792" xml:space="preserve">
<g id="XMLID_2_">
	<g id="XMLID_11_">
		<path id="XMLID_3_" fill="#666666" d="M524.981,627.412H87.019c-43.031,0-77.456-34.425-77.456-77.456V241.088
			c0-43.031,34.425-77.457,77.456-77.457h77.456c43.031,0,77.457,34.426,77.457,77.457v110.925c0,9.563,7.649,18.169,18.168,18.169
			h265.838c43.031,0,77.456,34.425,77.456,77.456v103.274C602.438,592.987,567.057,627.412,524.981,627.412z M87.019,216.225
			c-14.344,0-25.818,11.476-25.818,25.819v308.868c0,14.344,11.475,25.819,25.818,25.819h437.963
			c14.344,0,25.818-11.476,25.818-25.819V447.638c0-14.344-11.475-25.819-25.818-25.819H207.506
			c-9.563,0-18.168-7.649-18.168-18.168V241.088c0-14.344-11.476-25.819-25.819-25.819h-76.5V216.225z"/>
	</g>
</g>
<g id="XMLID_8_">
	<path id="XMLID_4_" fill="#666666" d="M530.719,347.231H348.075c-38.25,0-68.851-30.601-68.851-68.851v-45.899
		c0-38.25,30.601-68.851,68.851-68.851h182.644c38.25,0,68.85,30.601,68.85,68.851v45.899
		C599.568,316.631,568.013,347.231,530.719,347.231z M348.075,209.531c-12.432,0-22.95,10.519-22.95,22.95v45.899
		c0,12.432,10.519,22.95,22.95,22.95h182.644c12.432,0,22.95-10.519,22.95-22.95v-45.899c0-12.432-10.519-22.95-22.95-22.95H348.075
		z"/>
</g>
</svg>
