<?xml version="1.0" encoding="utf-8"?>
<!-- Generator: Adobe Illustrator 19.0.0, SVG Export Plug-In . SVG Version: 6.00 Build 0)  -->
<svg version="1.1" id="图层_1" xmlns="http://www.w3.org/2000/svg" xmlns:xlink="http://www.w3.org/1999/xlink" x="0px" y="0px"
	 viewBox="0 0 64 64" style="enable-background:new 0 0 64 64;" xml:space="preserve">
<style type="text/css">
	.st0{fill:#F85E5C;}
	.st1{opacity:0.7;fill:#F85E5C;}
</style>
<g id="XMLID_1_">
	<path id="XMLID_18_" class="st0" d="M33.6,11.9h-2.2c-11.7,0-21.3,9.6-21.3,21.3v15.7c0,1.1,0.9,1.9,1.9,1.9h40.9
		c1.1,0,1.9-0.9,1.9-1.9V33.2C54.8,21.5,45.3,11.9,33.6,11.9z M24.6,22.4c-2.8,3.2-4.8,7-5.7,11.1c-0.4,1.7-0.6,3.5-0.6,5.2
		c0,0.9-0.8,1.7-1.7,1.7c-0.9,0-1.7-0.8-1.7-1.7c0-2,0.2-4,0.6-5.9c1-4.7,3.3-9.1,6.5-12.7c0.6-0.7,1.7-0.8,2.4-0.1
		C25.2,20.6,25.3,21.7,24.6,22.4z"/>
	<path id="XMLID_7_" class="st1" d="M54.7,62.7H10.1c-1.4,0-2.5-1.1-2.5-2.5v-4.7c0-1.4,1.1-2.5,2.5-2.5h44.6c1.4,0,2.5,1.1,2.5,2.5
		v4.7C57.2,61.5,56.1,62.7,54.7,62.7z"/>
	<path id="XMLID_4_" class="st0" d="M32.5,10L32.5,10c-0.9,0-1.7-0.8-1.7-1.7V3c0-0.9,0.8-1.7,1.7-1.7h0c0.9,0,1.7,0.8,1.7,1.7v5.3
		C34.2,9.2,33.4,10,32.5,10z"/>
	<path id="XMLID_12_" class="st0" d="M23.3,11.4L23.3,11.4c-0.8,0.4-1.8,0.1-2.3-0.7l-2.5-4.6c-0.4-0.8-0.1-1.8,0.7-2.3l0,0
		c0.8-0.4,1.8-0.1,2.3,0.7L24,9.1C24.5,9.9,24.2,10.9,23.3,11.4z"/>
	<path id="XMLID_15_" class="st0" d="M41.1,11.4L41.1,11.4c0.8,0.4,1.8,0.1,2.3-0.7l2.5-4.6c0.4-0.8,0.1-1.8-0.7-2.3l0,0
		c-0.8-0.4-1.8-0.1-2.3,0.7l-2.5,4.6C40,9.9,40.3,10.9,41.1,11.4z"/>
</g>
</svg>
