<?xml version="1.0" encoding="utf-8"?>
<!-- Generator: Adobe Illustrator 19.0.0, SVG Export Plug-In . SVG Version: 6.00 Build 0)  -->
<svg version="1.1" id="图层_1" xmlns="http://www.w3.org/2000/svg" xmlns:xlink="http://www.w3.org/1999/xlink" x="0px" y="0px"
	 viewBox="0 0 64 64" style="enable-background:new 0 0 64 64;" xml:space="preserve">
<style type="text/css">
	.st0{fill:#F85E5C;}
</style>
<g id="XMLID_22_">
	<path id="XMLID_5_" class="st0" d="M32.8,63.5c-12.4,0-22.5-10.1-22.5-22.5V19.6c0-1.6,1.3-2.9,2.9-2.9s2.9,1.3,2.9,2.9V41
		c0,9.2,7.5,16.6,16.6,16.6S49.4,50.1,49.4,41V29.7c0-1.6,1.3-2.9,2.9-2.9s2.9,1.3,2.9,2.9V41C55.2,53.4,45.2,63.5,32.8,63.5z"/>
</g>
<g id="XMLID_24_">
	<path id="XMLID_4_" class="st0" d="M22.3,38.7c-1.6,0-2.9-1.3-2.9-2.9V10.1c0-1.6,1.3-2.9,2.9-2.9s2.9,1.3,2.9,2.9v25.7
		C25.2,37.4,23.9,38.7,22.3,38.7z"/>
</g>
<g id="XMLID_26_">
	<path id="XMLID_3_" class="st0" d="M42.2,38.7c-1.6,0-2.9-1.3-2.9-2.9V10.1c0-1.6,1.3-2.9,2.9-2.9s2.9,1.3,2.9,2.9v25.7
		C45.1,37.4,43.8,38.7,42.2,38.7z"/>
</g>
<g id="XMLID_25_">
	<path id="XMLID_2_" class="st0" d="M32.3,38.7c-1.6,0-2.9-1.3-2.9-2.9V3.5c0-1.6,1.3-2.9,2.9-2.9s2.9,1.3,2.9,2.9v32.2
		C35.2,37.4,33.9,38.7,32.3,38.7z"/>
</g>
</svg>
