<?xml version="1.0" encoding="utf-8"?>
<!-- Generator: Adobe Illustrator 15.0.0, SVG Export Plug-In . SVG Version: 6.00 Build 0)  -->
<!DOCTYPE svg PUBLIC "-//W3C//DTD SVG 1.1//EN" "http://www.w3.org/Graphics/SVG/1.1/DTD/svg11.dtd">
<svg version="1.1" id="图层_1" xmlns="http://www.w3.org/2000/svg" xmlns:xlink="http://www.w3.org/1999/xlink" x="0px" y="0px"
	 width="612px" height="792px" viewBox="0 0 612 792" enable-background="new 0 0 612 792" xml:space="preserve">
<g id="XMLID_34_">
	<path id="XMLID_87_" fill="#727272" d="M312.693,167.456l256.275,59.288c5.737,0.956,10.519-0.957,13.388-6.694
		c5.737-12.431,15.3-30.6,20.081-40.162c1.912-2.869,0-6.694-3.825-7.65L310.781,105.3c-1.912,0-3.825,0-5.737,0L13.388,175.106
		c-2.869,0.956-4.781,4.781-3.825,7.649c4.781,9.563,15.3,28.688,21.994,41.119c2.869,4.781,7.65,6.693,12.431,5.737l262.969-62.156
		C308.869,167.456,310.781,167.456,312.693,167.456z"/>
	<path id="XMLID_83_" opacity="0.6" fill="#727272" enable-background="new    " d="M567.057,263.081l-254.363-59.287
		c-1.912,0-3.824,0-5.737,0L48.769,264.037c-5.737,0.957-9.563,6.694-9.563,12.432c15.3,169.256,122.4,368.156,267.75,420.75h0.956
		h0.957c146.306-52.594,253.406-252.45,266.793-421.706C576.619,269.775,572.794,264.037,567.057,263.081z M307.912,272.644
		c18.169,0,32.513,14.344,32.513,32.513s-14.344,32.513-32.513,32.513c-18.168,0-32.512-14.344-32.512-32.513
		S289.744,272.644,307.912,272.644z M322.256,595.856h-27.73c-4.781,0-8.606-3.825-9.563-8.606l-16.257-202.725
		c0-5.738,3.825-9.563,9.563-9.563h60.244c5.737,0,9.563,4.781,9.563,9.563L330.862,587.25
		C330.862,592.031,327.037,595.856,322.256,595.856z"/>
</g>
</svg>
