<?xml version="1.0" encoding="utf-8"?>
<!-- Generator: Adobe Illustrator 15.0.0, SVG Export Plug-In . SVG Version: 6.00 Build 0)  -->
<!DOCTYPE svg PUBLIC "-//W3C//DTD SVG 1.1//EN" "http://www.w3.org/Graphics/SVG/1.1/DTD/svg11.dtd">
<svg version="1.1" id="图层_1" xmlns="http://www.w3.org/2000/svg" xmlns:xlink="http://www.w3.org/1999/xlink" x="0px" y="0px"
	 width="612px" height="792px" viewBox="0 0 612 792" enable-background="new 0 0 612 792" xml:space="preserve">
<g id="XMLID_125_">
	<g id="XMLID_77_" opacity="0.6">
		<path id="XMLID_78_" fill="#727272" d="M589.05,161.719H83.194v528.807h504.9V161.719H589.05z M196.031,285.075
			c9.563-7.65,22.95-5.737,30.6,3.825l54.507,67.894l167.344-123.356c9.563-7.65,23.906-4.781,30.6,4.781
			c7.65,9.563,4.781,23.906-4.781,30.6L289.744,404.606c-3.825,2.868-8.606,4.781-13.388,4.781c-6.694,0-12.432-2.869-17.213-8.606
			l-67.894-85.106C184.557,306.112,186.469,292.725,196.031,285.075z M472.388,601.594H199.856
			c-12.432,0-21.994-9.563-21.994-21.994c0-12.431,9.563-21.993,21.994-21.993h272.531c12.431,0,21.993,9.563,21.993,21.993
			C494.381,592.031,484.818,601.594,472.388,601.594z M472.388,505.013H199.856c-12.432,0-21.994-9.563-21.994-21.994
			c0-12.431,9.563-21.993,21.994-21.993h272.531c12.431,0,21.993,9.563,21.993,21.993
			C494.381,495.45,484.818,505.013,472.388,505.013z"/>
	</g>
	<polygon id="XMLID_76_" fill="#727272" points="62.156,142.594 495.338,142.594 495.338,101.475 22.95,101.475 22.95,614.981 
		62.156,614.981 	"/>
</g>
</svg>
