<?xml version="1.0" encoding="utf-8"?>
<!-- Generator: Adobe Illustrator 15.0.0, SVG Export Plug-In . SVG Version: 6.00 Build 0)  -->
<!DOCTYPE svg PUBLIC "-//W3C//DTD SVG 1.1//EN" "http://www.w3.org/Graphics/SVG/1.1/DTD/svg11.dtd">
<svg version="1.1" id="图层_1" xmlns="http://www.w3.org/2000/svg" xmlns:xlink="http://www.w3.org/1999/xlink" x="0px" y="0px"
	 width="612px" height="792px" viewBox="0 0 612 792" enable-background="new 0 0 612 792" xml:space="preserve">
<g id="XMLID_120_">
	<path id="XMLID_90_" opacity="0.6" fill="#727272" enable-background="new    " d="M580.443,680.006H31.556
		c-9.563,0-18.168-7.649-18.168-18.168v-33.469c0-9.563,7.65-18.169,18.168-18.169h548.887c9.563,0,18.169,7.649,18.169,18.169
		v33.469C598.612,672.356,590.006,680.006,580.443,680.006z"/>
	<path id="XMLID_89_" fill="#727272" d="M131.006,368.269l43.988-58.331c7.649-9.563,22.949-9.563,29.644,0.956l45.899,70.763
		c7.65,11.475,25.819,10.519,31.557-1.912l82.237-174.994c6.694-14.344,26.775-13.388,33.469,0.956l65.981,158.737
		c2.869,6.694,9.563,11.476,16.256,11.476h100.406c9.563,0,18.169-7.65,18.169-18.169V129.206c0-9.563-7.649-18.169-18.169-18.169
		H31.556c-9.563,0-18.168,7.65-18.168,18.169V357.75c0,9.563,7.65,18.169,18.168,18.169h85.106
		C122.4,375.919,128.138,373.05,131.006,368.269z"/>
	<path id="XMLID_88_" opacity="0.6" fill="#727272" enable-background="new    " d="M436.05,406.519l-40.162-97.537
		c-5.737-14.344-26.775-15.3-33.469-0.956l-73.632,157.781c-5.737,12.431-23.906,14.344-31.556,1.912l-54.507-83.193
		c-6.693-10.52-21.993-11.476-29.644-0.957L152.044,411.3c-3.825,4.781-8.606,7.65-14.344,7.65H31.556
		c-9.563,0-18.168,7.649-18.168,18.169V564.3c0,9.563,7.65,18.169,18.168,18.169h548.887c9.563,0,18.169-7.65,18.169-18.169V435.206
		c0-9.563-7.649-18.169-18.169-18.169H452.307C445.612,417.037,438.919,413.213,436.05,406.519z"/>
</g>
</svg>
