<?xml version="1.0" encoding="utf-8"?>
<!-- Generator: Adobe Illustrator 15.0.0, SVG Export Plug-In . SVG Version: 6.00 Build 0)  -->
<!DOCTYPE svg PUBLIC "-//W3C//DTD SVG 1.1//EN" "http://www.w3.org/Graphics/SVG/1.1/DTD/svg11.dtd">
<svg version="1.1" id="图层_1" xmlns="http://www.w3.org/2000/svg" xmlns:xlink="http://www.w3.org/1999/xlink" x="0px" y="0px"
	 width="612px" height="792px" viewBox="0 0 612 792" enable-background="new 0 0 612 792" xml:space="preserve">
<g id="XMLID_126_">
	<g id="XMLID_74_" opacity="0.6">
		<path id="XMLID_75_" fill="#727272" d="M309.825,270.731H42.075c-7.65,0-14.344-6.694-14.344-14.344v-54.507
			c0-7.649,6.693-14.344,14.344-14.344h267.75c7.649,0,14.344,6.694,14.344,14.344v54.507
			C323.213,264.994,317.475,270.731,309.825,270.731z"/>
	</g>
	<g id="XMLID_72_" opacity="0.6">
		<path id="XMLID_73_" fill="#727272" d="M254.362,529.875H41.119c-7.65,0-14.344,6.693-14.344,14.344v54.506
			c0,7.65,6.694,14.344,14.344,14.344h232.369c10.519,0,17.213-11.475,12.432-20.081c-7.65-15.3-14.344-32.513-17.213-50.681
			C267.75,535.612,262.013,529.875,254.362,529.875z"/>
	</g>
	<g id="XMLID_70_" opacity="0.6">
		<path id="XMLID_71_" fill="#727272" d="M305.044,358.706H41.119c-7.65,0-14.344,6.694-14.344,14.344v54.507
			c0,7.649,6.694,14.344,14.344,14.344h227.587c5.737,0,10.519-2.869,12.432-8.606c6.693-14.344,21.993-41.119,32.513-58.331
			C318.432,368.269,312.693,358.706,305.044,358.706z"/>
	</g>
	<path id="XMLID_67_" fill="#727272" d="M533.588,398.869V236.307c0-42.075-28.688-77.457-67.895-85.106
		c-24.862-4.781-50.681,0.956-70.762,17.212c-20.082,16.257-30.601,40.163-30.601,65.025v166.388
		c-43.987,33.469-65.024,87.975-53.55,142.481c11.475,53.55,54.506,97.537,108.057,108.056c9.563,1.913,20.081,2.869,29.644,2.869
		c32.513,0,64.068-10.519,88.931-31.557c33.469-26.774,52.594-66.938,52.594-109.969C590.963,467.719,569.925,426.6,533.588,398.869
		z M390.15,434.25c11.475-8.606,17.212-21.037,17.212-33.469V233.438c0-12.432,5.737-23.906,15.3-32.513
		c7.65-5.737,16.257-9.563,25.819-9.563c2.868,0,5.737,0,8.606,0.956c19.125,3.825,33.469,21.994,33.469,43.031v163.52
		c0,13.387,6.693,25.818,17.212,33.469c20.081,15.3,33.469,36.337,37.294,60.243c-12.432,11.476-32.513,27.731-54.506,27.731
		c-37.294,0-49.726-31.557-81.281-43.987c-16.257-6.694-36.338-3.825-51.638-0.956C364.331,460.068,375.807,444.769,390.15,434.25z"
		/>
</g>
</svg>
