<?xml version="1.0" encoding="utf-8"?>
<!-- Generator: Adobe Illustrator 15.0.0, SVG Export Plug-In . SVG Version: 6.00 Build 0)  -->
<!DOCTYPE svg PUBLIC "-//W3C//DTD SVG 1.1//EN" "http://www.w3.org/Graphics/SVG/1.1/DTD/svg11.dtd">
<svg version="1.1" id="图层_1" xmlns="http://www.w3.org/2000/svg" xmlns:xlink="http://www.w3.org/1999/xlink" x="0px" y="0px"
	 width="612px" height="792px" viewBox="0 0 612 792" enable-background="new 0 0 612 792" xml:space="preserve">
<g id="XMLID_55_">
	<g id="XMLID_62_">
		<path id="XMLID_129_" fill="#C5C5C5" d="M412.144,450.506c-5.737,0-11.475-1.912-16.256-6.693c-8.606-8.606-7.65-22.95,0.956-30.6
			c0.956-0.957,2.869-2.869,2.869-6.694V162.675c0-4.781-3.825-8.606-8.606-8.606H87.019c-3.825,0-5.737,1.913-6.693,2.869
			c-7.65,8.606-21.994,9.563-30.6,0.956c-8.606-8.606-9.563-21.993-0.957-30.6c9.563-10.519,23.906-16.257,38.25-16.257h305.044
			c28.688,0,51.638,22.95,51.638,51.638v243.844c0,14.344-5.737,27.731-16.257,38.25
			C422.662,448.594,417.881,450.506,412.144,450.506z"/>
	</g>
	<g id="XMLID_61_">
		<path id="XMLID_128_" fill="#727272" d="M362.419,657.057c-96.581,0-177.862-65.981-195.075-156.825
			c-1.912-10.519-2.869-21.994-2.869-32.513h43.031c0,8.606,0.957,17.213,1.913,24.862c12.431,69.807,76.5,120.487,152.044,120.487
			c85.105,0,153.956-65.024,153.956-146.306v-30.601h43.031v30.601C560.362,571.95,471.432,657.057,362.419,657.057z"/>
	</g>
	<g id="XMLID_59_">
		<circle id="XMLID_60_" fill="#727272" cx="538.369" cy="399.825" r="61.2"/>
	</g>
	<g id="XMLID_127_">
		<ellipse id="XMLID_131_" fill="#727272" cx="362.419" cy="620.719" rx="92.756" ry="61.2"/>
	</g>
	<g id="XMLID_132_">
		<path id="XMLID_136_" fill="#C5C5C5" d="M12.431,450.506V206.662c0-17.212,13.388-30.6,30.6-30.6h305.044
			c16.256,0,30.6,13.388,30.6,30.6v243.844c0,16.257-13.388,30.601-30.6,30.601H43.031C25.819,480.15,12.431,466.763,12.431,450.506
			z"/>
	</g>
</g>
</svg>
