<?xml version="1.0" encoding="utf-8"?>
<!-- Generator: Adobe Illustrator 15.0.0, SVG Export Plug-In . SVG Version: 6.00 Build 0)  -->
<!DOCTYPE svg PUBLIC "-//W3C//DTD SVG 1.1//EN" "http://www.w3.org/Graphics/SVG/1.1/DTD/svg11.dtd">
<svg version="1.1" id="图层_1" xmlns="http://www.w3.org/2000/svg" xmlns:xlink="http://www.w3.org/1999/xlink" x="0px" y="0px"
	 width="612px" height="792px" viewBox="0 0 612 792" enable-background="new 0 0 612 792" xml:space="preserve">
<g id="XMLID_130_">
	<path id="XMLID_64_" opacity="0.6" fill="#727272" enable-background="new    " d="M242.888,110.081
		c-7.65-10.519-22.95-10.519-31.557,0C161.606,173.193,11.475,374.006,11.475,473.456c0,119.531,96.582,216.112,216.113,216.112
		S443.7,592.987,443.7,473.456C443.7,374.006,292.612,174.15,242.888,110.081z M328.95,479.193h-39.206
		c-2.869,0-4.781,1.913-4.781,4.781v72.676c0,2.868-1.913,4.781-4.781,4.781H174.037c-2.868,0-4.781-1.913-4.781-4.781v-72.676
		c0-2.868-1.912-4.781-4.781-4.781h-39.206c-3.825,0-5.737-3.824-3.825-7.649l101.363-112.838c1.912-1.912,5.737-1.912,7.649,0
		l101.362,112.838C334.688,474.412,332.775,479.193,328.95,479.193z"/>
	<path id="XMLID_63_" fill="#727272" d="M426.487,148.331c-6.693-8.606-20.081-8.606-27.731,0
		c-11.475,14.344-28.688,37.294-48.769,64.069c59.288,87.019,125.269,196.031,125.269,262.969
		c0,70.762-33.469,133.875-85.105,174.037c7.649,0.956,14.344,0.956,21.993,0.956c103.275,0,187.425-84.149,187.425-187.425
		C600.525,376.875,469.519,202.838,426.487,148.331z"/>
</g>
</svg>
