<?xml version="1.0" encoding="utf-8"?>
<!-- Generator: Adobe Illustrator 15.0.0, SVG Export Plug-In . SVG Version: 6.00 Build 0)  -->
<!DOCTYPE svg PUBLIC "-//W3C//DTD SVG 1.1//EN" "http://www.w3.org/Graphics/SVG/1.1/DTD/svg11.dtd">
<svg version="1.1" id="图层_1" xmlns="http://www.w3.org/2000/svg" xmlns:xlink="http://www.w3.org/1999/xlink" x="0px" y="0px"
	 width="612px" height="792px" viewBox="0 0 612 792" enable-background="new 0 0 612 792" xml:space="preserve">
<g>
	<path fill="#555555" d="M460.02,367.44v6.118h3.062v37.74h-3.062v6.12h14.28h6.12v7.14h6.12v-7.14h3.06v-6.12h-3.06v-37.74h3.06
		v-6.118H475.32H460.02z M480.42,411.3h-6.12h-5.1v-8.16h6.12h6.119v8.16H480.42z M480.42,397.02h-6.12h-5.1v-8.158h6.12h6.119
		v8.158H480.42z M480.42,373.56v9.182h-6.12h-5.1v-9.182h6.12H480.42z"/>
	<path fill="#555555" d="M579.36,374.58c1.02-1.021,1.02-1.021,2.04-1.021h16.318v-6.118H581.4c-3.062,0-5.102,0-6.12,1.02
		c-3.062,2.04-4.08,4.08-4.08,7.14V416.4c0,1.02-1.021,1.02-2.04,2.04v6.118c2.04,0,4.08-1.02,5.1-2.04
		c2.04-2.04,3.062-4.078,3.062-7.14v-26.52h9.18v34.68h6.12v-34.68h4.08v-6.12h-19.38v-6.12
		C578.34,376.62,578.34,375.6,579.36,374.58z"/>
	<path fill="#555555" d="M565.08,378.66L565.08,378.66h-6.12v5.1h-12.24v-5.1h-6.12l0,0v5.1h-4.08v6.12h4.08h9.182v4.08H540.6h-4.08
		v6.12h4.08h9.182v16.32c0,2.04-1.021,2.04-2.04,2.04h-2.04v6.118h4.08c1.02,0,3.06,0,4.08-1.02c1.02-1.021,2.04-3.061,2.04-5.1
		v-18.36h9.18h4.08v-6.12h-4.08h-9.18v-4.08h9.18h4.08v-6.12h-4.08L565.08,378.66L565.08,378.66z"/>
	<polygon fill="#555555" points="555.9,370.5 555.9,367.44 549.78,367.44 549.78,370.5 540.6,370.5 536.52,370.5 536.52,376.62 
		540.6,376.62 565.08,376.62 569.16,376.62 569.16,370.5 565.08,370.5 	"/>
	<path fill="#555555" d="M518.16,367.44h-6.12v7.14H499.8v-7.14h-6.12v7.14h-4.08v6.12h13.262v7.14c0,0,0,1.021,0,3.062
		c0,0,0,1.02,0,2.04H489.6v6.118h12.24c-2.04,7.142-4.08,12.24-7.14,15.302c-1.021,1.02-3.062,3.06-5.102,4.08v6.118
		c1.021,0,3.062-1.02,3.062-1.02c2.04-1.021,4.08-3.06,6.12-5.1c2.04-3.062,4.08-7.142,6.12-12.24c2.039,4.08,4.08,8.16,6.118,11.22
		c2.04,3.062,5.102,5.1,9.182,8.16v-7.14c-2.04-2.04-5.102-4.08-7.142-7.142c-2.04-2.04-3.06-6.12-5.1-11.22h11.22v-6.12H510
		c0-1.02,0-3.06,0-5.1v-6.12h13.26v-6.12h-4.08v-9.18L518.16,367.44L518.16,367.44z"/>
	<path fill="#555555" d="M567.12,416.4l-1.021-12.24h-2.04h-4.078v12.24c0,3.06,1.02,6.118,4.078,7.14
		c1.021,1.02,2.04,1.02,4.08,1.02v-6.118C568.14,418.44,567.12,417.42,567.12,416.4z"/>
	<path fill="#555555" d="M538.56,404.16l-1.02,12.24c0,1.02-1.021,1.02-2.04,2.04v6.118c1.02,0,3.06,0,4.08-1.02c0,0,0,0,1.02,0
		c1.021-1.021,2.04-2.04,3.062-3.061c0-1.021,0-2.039,1.02-4.079l1.021-11.222H540.6h-2.04V404.16z"/>
	<path fill="#555555" d="M100.98,380.7h-6.12h-5.1c-7.14,0-21.42,4.08-21.42,17.34v26.52h10.2V412.32c0-1.021,1.02-2.04,2.04-2.04
		h15.3h15.3c1.021,0,2.04,1.02,2.04,2.04v12.238h10.2v-26.52C122.4,383.76,108.12,380.7,100.98,380.7z M112.2,398.04
		c0,1.02-1.021,2.04-2.04,2.04h-15.3H80.58c-1.02,0-2.04-1.021-2.04-2.04v-1.021c0-4.078,5.1-7.14,11.22-7.14h6.12H102
		C107.1,390.9,112.2,392.94,112.2,398.04L112.2,398.04z"/>
	<path fill="#555555" d="M437.58,397.02h-27.54c-1.021,0-2.04-1.02-2.04-3.06s1.02-3.06,2.04-3.06h37.74v-10.2h-37.74
		c-4.08,0-7.14,1.02-9.18,4.08c-2.04,3.06-3.062,6.12-3.062,9.18c0,4.08,1.021,7.14,3.062,9.18c2.04,3.062,5.1,4.08,9.18,4.08h27.54
		c1.02,0,2.04,1.021,2.04,3.062s-1.021,3.06-2.04,3.06h-37.74v10.2h37.74c4.08,0,7.14-1.021,9.18-4.08s3.062-6.12,3.062-9.18
		c0-4.08-1.021-7.142-3.062-9.182S441.66,397.02,437.58,397.02z"/>
	<path fill="#555555" d="M354.96,397.02h-27.54c-1.02,0-2.04-1.02-2.04-3.06s1.021-3.06,2.04-3.06h37.74v-10.2h-37.74
		c-4.08,0-7.14,1.02-9.18,4.08c-2.04,3.06-3.062,6.12-3.062,9.18c0,4.08,1.021,7.14,3.062,9.18c2.04,3.062,5.1,4.08,9.18,4.08h27.54
		c1.021,0,2.04,1.021,2.04,3.062s-1.02,3.06-2.04,3.06h-37.74v10.2h37.74c4.08,0,7.14-1.021,9.18-4.08s3.062-6.12,3.062-9.18
		c0-4.08-1.021-7.142-3.062-9.182C361.08,399.06,358.02,397.02,354.96,397.02z"/>
	<rect x="377.4" y="380.7" fill="#555555" width="10.198" height="43.858"/>
	<path fill="#555555" d="M24.48,408.24V380.7h-10.2v31.62c0,3.06,0,5.1,1.02,6.12c0,1.02,1.02,2.04,2.04,3.06
		c2.04,2.04,6.12,4.08,10.2,4.08h30.6v-10.2H28.56C25.5,414.36,24.48,412.32,24.48,408.24z"/>
	<path fill="#555555" d="M302.94,380.7H268.26c-10.2,0-16.318,7.14-16.318,22.438c0,15.302,6.118,22.44,16.318,22.44h34.682
		c1.02,0,2.04-1.021,2.04-2.04v-5.1c0-1.021-1.021-2.04-2.04-2.04H268.26c-4.08,0-6.12-4.08-6.12-8.16h40.802
		c1.02,0,2.04-1.021,2.04-2.04v-5.1c0-1.02-1.021-2.04-2.04-2.04H262.14c0-4.078,2.04-8.158,6.12-8.158h34.682
		c1.02,0,2.04-1.021,2.04-2.04v-5.102C304.98,381.72,303.96,380.7,302.94,380.7z"/>
	<path fill="#555555" d="M231.54,393.96c0,2.04-2.04,3.06-3.06,3.06H209.1c-2.04,0-3.06-2.039-3.06-3.06V380.7h-10.2v43.858h10.2
		V411.3c0-2.04,2.04-3.06,3.06-3.06h19.382c2.038,0,3.06,2.04,3.06,3.06v13.26h10.2V380.7h-10.2L231.54,393.96L231.54,393.96z"/>
	<path fill="#555555" d="M182.58,380.7H147.9c-10.2,0-16.32,7.14-16.32,22.438c0,15.302,6.12,22.44,16.32,22.44h34.68
		c1.02,0,2.04-1.021,2.04-2.04v-5.1c0-1.021-1.021-2.04-2.04-2.04H147.9c-6.12,0-7.142-8.16-7.142-13.262
		c0-4.08,1.021-13.26,7.142-13.26h34.68c1.02,0,2.04-1.02,2.04-2.04v-5.1C184.62,381.72,183.6,380.7,182.58,380.7z"/>
</g>
</svg>
